<svg width="2414" height="1562" xmlns="http://www.w3.org/2000/svg" xml:space="preserve" overflow="hidden"><defs><clipPath id="clip0"><rect x="889" y="319" width="2414" height="1562"/></clipPath></defs><g clip-path="url(#clip0)" transform="translate(-889 -319)"><rect x="903.5" y="882.5" width="2386" height="808" stroke="#FFFFFF" stroke-width="6.875" stroke-miterlimit="8" fill="#C9C9C9"/><path d="M903 764.737C903 727.879 932.879 698 969.737 698L3222.26 698C3259.12 698 3289 727.879 3289 764.737L3289 1710.26C3289 1747.12 3259.12 1777 3222.26 1777L969.737 1777C932.879 1777 903 1747.12 903 1710.26Z" stroke="#000000" stroke-width="27.5" stroke-miterlimit="8" fill="none" fill-rule="evenodd"/><rect x="1282" y="562" width="70.0001" height="19.9999" stroke="#000000" stroke-width="27.5" stroke-miterlimit="8" fill="none"/><rect x="1422" y="547" width="320" height="151" stroke="#000000" stroke-width="27.5" stroke-miterlimit="8" fill="#FFFFFF"/><path d="M1030 607.825C1030 601.847 1034.85 597 1040.82 597L1239.17 597C1245.15 597 1250 601.847 1250 607.825L1250 687.175C1250 693.154 1245.15 698 1239.17 698L1040.82 698C1034.85 698 1030 693.154 1030 687.175Z" stroke="#000000" stroke-width="27.5" stroke-miterlimit="8" fill="none" fill-rule="evenodd"/><path d="M1424 585 1405.96 698 1228.04 698 1210 585Z" stroke="#000000" stroke-width="27.5" stroke-miterlimit="8" fill="#FFFFFF" fill-rule="evenodd"/><path d="M3150 582 3143.69 698 2858.31 698 2852 582Z" stroke="#000000" stroke-width="27.5" stroke-miterlimit="8" fill="none" fill-rule="evenodd"/><path d="M1571 1227 1703.25 698 2696.75 698 2829 1227Z" stroke="#000000" stroke-width="27.5" stroke-miterlimit="8" fill="none" fill-rule="evenodd"/><path d="M1742 698 2119.98 333 2280.02 333 2658 698Z" stroke="#000000" stroke-width="27.5" stroke-miterlimit="8" fill="none" fill-rule="evenodd"/><path d="M1413 1495C1413 1441.43 1456.43 1398 1510 1398 1563.57 1398 1607 1441.43 1607 1495 1607 1548.57 1563.57 1592 1510 1592 1456.43 1592 1413 1548.57 1413 1495Z" stroke="#000000" stroke-width="27.5" stroke-miterlimit="8" fill="none" fill-rule="evenodd"/><path d="M1571 1237.5C1571 889.837 1852.61 608 2200 608 2547.39 608 2829 889.837 2829 1237.5 2829 1585.16 2547.39 1867 2200 1867 1852.61 1867 1571 1585.16 1571 1237.5Z" stroke="#000000" stroke-width="27.5" stroke-miterlimit="8" fill="#C9C9C9" fill-rule="evenodd"/><path d="M1728 1227C1728 966.322 1939.32 755 2200 755 2460.68 755 2672 966.322 2672 1227 2672 1487.68 2460.68 1699 2200 1699 1939.32 1699 1728 1487.68 1728 1227Z" stroke="#000000" stroke-width="27.5" stroke-miterlimit="8" fill="#DEEBF7" fill-rule="evenodd"/><path d="M1484 1400 1492.07 1259 1527.93 1259 1536 1400Z" stroke="#000000" stroke-width="27.5" stroke-miterlimit="8" fill="#FFFFFF" fill-rule="evenodd"/><path d="M1422 881.5C1422 846.982 1449.76 819 1484 819 1518.24 819 1546 846.982 1546 881.5 1546 916.018 1518.24 944 1484 944 1449.76 944 1422 916.018 1422 881.5Z" stroke="#000000" stroke-width="27.5" stroke-miterlimit="8" fill="#FFFFFF" fill-rule="evenodd"/></g></svg>